<svg xmlns="http://www.w3.org/2000/svg" version="1.1" xmlns:xlink="http://www.w3.org/1999/xlink" xmlns:svgjs="http://svgjs.dev/svgjs" width="1500" height="1687" viewBox="0 0 1500 1687"><g transform="matrix(1,0,0,1,0.00011015625000254659,0)"><svg viewBox="0 0 320 360" data-background-color="#ffffff" preserveAspectRatio="xMidYMid meet" height="1687" width="1500" xmlns="http://www.w3.org/2000/svg" xmlns:xlink="http://www.w3.org/1999/xlink"><g id="tight-bounds" transform="matrix(1,0,0,1,0.000023499999997511622,0)"><svg viewBox="0 0 320 360" height="360" width="320"><g><svg></svg></g><g><svg viewBox="0 0 320 360" height="360" width="320"><g><path transform="translate(-74.99272,-51.79039) scale(4.65793,4.65793)" d="M20.6 59.9l0.8 1-0.4-1.3c-0.1-0.6-0.8 0.1-0.4 0.3M21.5 59.3c0.3 0.5 0.6 1 0.6 1.5 0 0.7 0.6 1 1.1 1.2-0.7-0.8-1.1-3-1.7-2.7M59.9 16.9c1.7 0 3.3-0.2 5.1 0.2 4.4 1.1 8.1 3.3 10.6 6.4l7 11.2c0.3 2.8 0.9 5.9 0.8 9.3 0.7 0 0.6-1 1.4-1.2-0.8 2-1.2 4.5-1.4 7.4-0.5-1.6 0-4 0.1-5.3-0.7 1.1-1.1 0.3-1.1-0.2 0.1-0.8-0.3-0.7-0.6-1-1.1-1-1.8-2.1-2.6-3.8 0.5-1.3 0.6-3.2-1-4.2-0.5-0.3-1.1-0.8-1.4-1.6-0.4-1.1-1.1-2.4-0.9-4.1 0.1-0.5-1.5 1.1-2.4 0.4-3.9-2.7-7.8-5.8-12.5-8.4-2.5 0-4.3-0.9-5.2-2-0.8-1-0.2-2.3 1-2.4 0.7 0 1.5-0.2 2.1 0.2 0.1-0.4 0.5-0.9 1-0.9M50 14.6l0.2 0.1c1 0.2 1.5 1.6 2.6 1.1 0 0.7 0.1 1.4-0.1 1.9-0.3 0.8-1.2 0.8-1.9 0.8-6.7-0.4-10.6 2.4-14.7 4.8-1.1 0.7-2.3 1.2-3.2 2.1-4.3 4-9 7.7-10.1 15.1l-0.9 8.2c-0.1 0.9-1.1 1.8-0.9 2.9l0.7 4.9c-0.7-0.7-1.1 0.2-0.9 0.6 0.1 0.3 0.5 1.3 1.1 0.4 0.8 1.5 1.6 4.4 2.7 5.7 3.4 4 7.8 7.6 11.4 11.2 0.9-0.2 1.6-0.2 1.8-0.8 0.3 0.6-0.3 1.2-0.8 1.3 1.6 1 3.4 1.9 5.8 2.1 3.1 0.2 6 0.7 8.7 1.4 1.4-0.4 2.8-0.6 4.3-0.7 0.5 0 0.8-0.8 1.4-1l0.1-1c0.6 0.9 0.5-0.3 0.1-0.9 0.7 0.6 0.9 1.1 1.2 1.5 0-0.3 0.8-1.4 0.8-0.1l0.2-1.3c0.3-0.2 0.4 1.1 0.7 0.2 0.3-0.9 0.9-0.2 1.5-0.5-0.2 0.4-0.1 1.2 0.6 0.7l0.8-0.7c0.5 1.2 1.3 0.7 1.7 0.5 4.4-2.8 8.8-6.1 13-9.4l-0.1 1.3 0.5-1.6c0.5 0.5 0.9 0.1 1.1-0.2 0.6-1 1.4-2 2.7-2.9-1.6 4.3-3.5 7.7-5.9 10.5l-1 1.2c0 0.7-0.2 1.6-1 1.7-0.4 0.1-1.2-0.2-1.8 0.4-0.3 0.4 0.7 1.2-0.1 0.6-0.7-0.5-1.4 0-2.2 0.2-0.6 0.2 0.4 0.8 0.6 1.2 0.2 0.4 0.4 0.8 0.3 1.3l-1.1-1.2c-1.3 0.7-2.1 2-3.2 3-0.5 0.4-0.3 1.1-0.3 1.7-0.7 0-1.5-0.2-1.9 0.2-0.3 0.4-0.2 1-0.2 1.6-1-0.1-1.1-1.6-2-1.3-0.9 0.2-1.9 0.3-2.7 0.8 0.6 1.2-1 0.5-0.8 0.7-1.5-0.9-2.8-1.6-4.4-1-3.4-1.1-7.6-0.6-10.7-0.2 0-0.5 0.1-1-0.1-1.1-0.2 0.5-0.8 0.3-0.7 0.3-1.9-1.3-3.8-2.1-5.8-3.2-1.8 0.2-3.5-0.7-4-1.2-1.4-1.3-3-0.6-4.3-0.9-2.8-0.7-3.8-3.6-4.1-5.6-0.2-1-1-1.4-1.3-1.3-1.3-4.2-3.3-8-4.9-11.9-0.4-1-0.3-2-0.3-3.1 0.5 0.2 1 0.1 0.9-0.6-0.5-3.3-1.7-5.8-3-8.2 0.7-3.4 0.8-7.4 2.4-10.4 1.4-2.7 4-4.1 5.8-6.4 0.6-0.8 0.6-1.9 1.2-2.6 2-2 4-4.1 6.2-5.9 1-0.8 2.2 0 3.7-0.3 0.5-1.8 2.5-3.4 4.4-2.9 0.8 0.2 2.4-1.9 2.9-2.1 0.8-0.3 0.4 0.8 0.4 1.5 1.9-1.5 4.5-2.3 6.9-3.2" fill="#ff4136" fill-rule="nonzero" stroke="none" stroke-width="1" stroke-linecap="butt" stroke-linejoin="miter" stroke-miterlimit="10" stroke-dasharray="" stroke-dashoffset="0" font-family="none" font-weight="none" font-size="none" text-anchor="none" style="mix-blend-mode: normal" data-fill-palette-color="tertiary"></path></g><g transform="matrix(1,0,0,1,108.52150712149371,90)"><svg viewBox="0 0 102.95698575701257 180" height="180" width="102.95698575701257"><g><svg viewBox="0 0 192.95999999999998 337.35253362965017" height="180" width="102.95698575701257"><g><rect width="192.95999999999998" height="12.455096866580435" x="0" y="154.1803139599588" fill="#ff851b" opacity="1" stroke-width="0" stroke="transparent" fill-opacity="1" class="rect-yte-0" data-fill-palette-color="primary" rx="1%" id="yte-0" data-palette-color="#ff851b"></rect></g><g transform="matrix(1,0,0,1,0.47999999999998977,199.24037644585974)"><svg viewBox="0 0 192 138.11215718379043" height="138.11215718379043" width="192"><g id="textblocktransform"><svg viewBox="0 0 192 138.11215718379043" height="138.11215718379043" width="192" id="textblock"><g><svg viewBox="0 0 192 138.11215718379043" height="138.11215718379043" width="192"><g transform="matrix(1,0,0,1,0,0)"><svg width="192" viewBox="-0.2 -32.5 45.800000000000004 32.95" height="138.11215718379043" data-palette-color="#ff851b"><g class="wordmark-text-0" data-fill-palette-color="primary" id="text-0"><path d="M3.15-10.65L3.15-10.65Q3.25-10.25 3.1-10.05L3.1-10.05Q2.9-9.65 2.6-9.55L2.6-9.55Q2.35-9.45 1.98-9.78 1.6-10.1 1.7-10.5L1.7-10.5Q1.8-10.7 2.05-10.8 2.3-10.9 2.55-10.9L2.55-10.9Q3-10.9 3.15-10.65ZM10.2-22.3L10.2-22.3Q10.05-22.45 10.25-22.6L10.25-22.6Q10.4-22.85 10.4-23L10.4-23Q10.6-23.1 10.8-23.28 11-23.45 11.25-23.45L11.25-23.45Q11.35-23.45 11.4-23.4L11.4-23.4Q11.5-23.5 11.6-23.5L11.6-23.5 11.75-23.5 11.9-23.5Q12.15-23.5 12.2-23.65L12.2-23.65Q12.5-23.55 12.6-23.55L12.6-23.55Q12.75-23.55 12.95-23.65L12.95-23.65Q13.05-23.7 13.25-23.7L13.25-23.7Q13.4-23.7 13.7-23.6L13.7-23.6Q14.05-23 14.1-22.8L14.1-22.8 14.25-22.25Q14.35-21.4 14.6-21.05L14.6-21.05Q14.7-20.9 14.78-20.7 14.85-20.5 14.9-20.35L14.9-20.35 15.4-20.2 15.8-20Q16.05-20.05 16.2-20.1 16.35-20.15 16.45-20.2L16.45-20.2 16.85-20.35Q16.95-20.4 17.15-20.6L17.15-20.6Q17.35-20.8 17.45-20.85L17.45-20.85Q17.45-21.5 17.7-21.85L17.7-21.85 17.7-22.95Q17.45-23.35 17.25-24.05 17.05-24.75 16.95-25.3L16.95-25.3Q16.8-25.6 16.7-25.65L16.7-25.65Q16.5-25.85 16.55-26L16.55-26Q16.2-26.05 16.2-26.45L16.2-26.45Q16.1-26.55 16.05-26.6 16-26.65 15.9-26.7L15.9-26.7Q15.7-26.75 15.65-26.95L15.65-26.95Q15.5-27 15.33-27.03 15.15-27.05 15-27.15L15-27.15Q14.6-27.35 14.35-27.35L14.35-27.35Q14-27.6 13.85-27.6L13.85-27.6 13.75-27.6Q13.55-27.6 13.5-27.65L13.5-27.65Q12.95-27.65 12.7-27.7L12.7-27.7Q12.45-27.7 12.28-27.73 12.1-27.75 11.9-27.8L11.9-27.8Q11.75-27.75 11.5-27.75L11.5-27.75 11.3-27.75Q11.05-27.75 10.65-27.65L10.65-27.65Q10.35-27.5 10.1-27.45L10.1-27.45Q9.1-27.1 8.1-26.95L8.1-26.95Q7.55-26.75 7.2-26.15L7.2-26.15 6.5-25Q6.25-24.75 6.25-24.45L6.25-24.45Q6.15-23.95 6.05-23.85L6.05-23.85 5.7-22.85Q5.55-22.5 5.6-22.2L5.6-22.2Q5.7-21.95 5.75-21.63 5.8-21.3 5.9-20.9L5.9-20.9Q5.95-20.7 5.95-20.53 5.95-20.35 6-20.2L6-20.2Q6.1-19.8 6.1-19.7L6.1-19.7 6.25-19Q6.4-18.45 6.5-18.25 6.6-18.05 6.7-17.95L6.7-17.95Q6.8-17.85 6.9-17.73 7-17.6 7.1-17.45L7.1-17.45Q7.4-17 7.9-16.95L7.9-16.95Q8.45-16.9 8.8-16.65L8.8-16.65Q9.35-16.55 9.58-16.4 9.8-16.25 10.05-16L10.05-16Q10.3-15.75 10.5-15.58 10.7-15.4 11.05-15.3L11.05-15.3Q11.15-15.05 11.45-15.05L11.45-15.05Q11.75-14.95 11.8-14.85L11.8-14.85Q12.2-14.8 12.6-14.68 13-14.55 13.25-14.4L13.25-14.4Q13.75-14.4 14.2-14.25L14.2-14.25Q14.25-14.25 14.28-14.28 14.3-14.3 14.35-14.3L14.35-14.3Q14.4-14.3 14.6-14.2L14.6-14.2Q14.75-14.05 14.95-14.05L14.95-14.05Q15.15-13.85 15.4-13.8 15.65-13.75 15.95-13.75L15.95-13.75Q16.1-13.45 16.6-13.45L16.6-13.45Q16.85-13.25 16.93-13.13 17-13 17.1-12.75L17.1-12.75Q17.35-12.25 17.57-11.7 17.8-11.15 18.05-10.6L18.05-10.6Q18.3-9.75 18.45-9.15 18.6-8.55 18.65-7.95L18.65-7.95 18.65-6.6Q18.65-5.3 18.2-4.3L18.2-4.3Q18.05-4.05 17.93-3.8 17.8-3.55 17.7-3.3L17.7-3.3Q17.5-3.05 17.38-2.9 17.25-2.75 17.15-2.55L17.15-2.55Q17-2.3 16.35-1.8L16.35-1.8Q16.15-1.6 15.75-1.4L15.75-1.4Q15.3-0.95 14.6-0.8L14.6-0.8Q13.95-0.65 13.4-0.35L13.4-0.35Q12.9-0.25 12.75-0.15L12.75-0.15 12.3-0.15Q11.95-0.1 11.73-0.08 11.5-0.05 11.25 0.1L11.25 0.1Q10.9 0.25 10.6 0.25L10.6 0.25Q10.35 0.25 10.25 0.2L10.25 0.2Q10.2 0.2 10.15 0.18 10.1 0.15 10.05 0.15L10.05 0.15Q9.9 0.15 9.75 0.3L9.75 0.3 9.5 0.3Q9 0.3 8.85 0.45L8.85 0.45 7.45 0.4Q7.4 0.25 7.15 0.25L7.15 0.25Q6.6 0.15 6.4 0.08 6.2 0 6.1-0.1L6.1-0.1Q5.85-0.15 5.55-0.35L5.55-0.35Q5.25-0.4 5.1-0.7L5.1-0.7Q4.7-0.7 4.7-0.9L4.7-0.9Q4.25-1.2 4.1-1.2L4.1-1.2 4-1.2Q3.7-1.45 3.58-1.6 3.45-1.75 3.35-2L3.35-2Q2.9-2.25 2.8-2.65L2.8-2.65Q2.65-2.9 2.45-3L2.45-3Q2.35-3.25 2.25-3.45 2.15-3.65 2.05-3.85L2.05-3.85Q1.8-4.25 1.95-4.75L1.95-4.75Q1.9-5.4 1.75-5.65L1.75-5.65Q1.65-6.15 1.68-6.35 1.7-6.55 1.75-6.65L1.75-6.65Q1.95-6.95 2-7.25L2-7.25Q2.15-7.45 2.23-7.55 2.3-7.65 2.4-7.75L2.4-7.75Q2.65-7.85 2.75-8.1L2.75-8.1Q3.3-8.35 3.65-8.55L3.65-8.55Q4-8.75 4.35-8.8L4.35-8.8Q4.6-8.8 4.9-8.95L4.9-8.95Q5.15-8.95 5.25-8.85L5.25-8.85Q5.45-8.9 5.85-8.9L5.85-8.9Q6.5-8.9 6.95-8.75L6.95-8.75Q7.2-8.9 7.5-8.9L7.5-8.9Q7.75-8.9 7.9-8.7L7.9-8.7Q7.85-8.35 8.05-8.05L8.05-8.05Q8.35-7.25 8.35-6.45L8.35-6.45Q8.5-6.2 8.47-5.73 8.45-5.25 8.2-4.9L8.2-4.9Q8.4-4.35 8.55-4.3L8.55-4.3 8.85-4.1Q9.1-3.85 9.3-3.85L9.3-3.85Q9.75-3.75 10-3.68 10.25-3.6 10.45-3.6L10.45-3.6Q10.7-3.6 10.8-3.65L10.8-3.65Q11.05-3.75 11.25-3.78 11.45-3.8 11.7-3.85L11.7-3.85Q11.85-4 12-4.1 12.15-4.2 12.35-4.3L12.35-4.3Q12.75-4.45 12.9-4.8L12.9-4.8Q13.2-5.2 13.35-5.25L13.35-5.25Q13.25-5.7 13.55-6L13.55-6Q13.8-6.25 13.85-6.65 13.9-7.05 13.8-7.45L13.8-7.45Q13.7-7.95 13.55-8.15L13.55-8.15Q13.55-8.7 13.2-9.1L13.2-9.1Q12.9-9.45 12.75-9.95L12.75-9.95Q12.55-10.05 12.45-10.15 12.35-10.25 12.3-10.3L12.3-10.3Q12.2-10.4 12.08-10.48 11.95-10.55 11.75-10.6L11.75-10.6Q11.4-10.75 11.25-10.83 11.1-10.9 11-10.95L11-10.95Q10.8-11.1 10.55-11.1L10.55-11.1Q10.45-11.2 10.3-11.28 10.15-11.35 9.95-11.4L9.95-11.4Q9.5-11.5 9.35-11.6L9.35-11.6Q8.8-11.6 8.35-11.9L8.35-11.9Q7.75-12 7.18-12.1 6.6-12.2 6.2-12.6L6.2-12.6Q5.95-12.85 5.8-12.85L5.8-12.85Q5.35-13.1 5.2-13.3L5.2-13.3 4.8-13.75Q4.15-13.8 3.8-14.25L3.8-14.25Q3.25-14.45 3.15-14.6L3.15-14.6Q3.05-14.65 2.98-14.7 2.9-14.75 2.8-14.8L2.8-14.8Q2.35-15.05 2.25-15.6L2.25-15.6 2.1-16.2Q1.85-16.5 1.95-16.7L1.95-16.7 1.55-18Q1.5-18.25 1.43-18.5 1.35-18.75 1.25-19L1.25-19Q1.15-19.3 1.1-19.53 1.05-19.75 1-19.9L1-19.9Q1-20 0.95-20.13 0.9-20.25 0.85-20.35L0.85-20.35Q0.8-21 0.5-21.5L0.5-21.5Q0.45-22.05 0.45-22.28 0.45-22.5 0.5-22.65L0.5-22.65Q0.6-23 0.45-23.3L0.45-23.3Q0.55-23.55 0.6-23.9 0.65-24.25 0.5-24.5L0.5-24.5 0.65-25.25Q0.65-25.65 0.85-25.85L0.85-25.85Q0.8-26.15 0.95-26.3L0.95-26.3Q1-26.4 1.05-26.5 1.1-26.6 1.15-26.75L1.15-26.75Q1.4-27 1.58-27.38 1.75-27.75 1.85-28.1L1.85-28.1Q2.1-28.25 2.25-28.6L2.25-28.6Q2.35-28.7 2.45-28.85 2.55-29 2.65-29.1L2.65-29.1Q3.4-30 4.4-30.5L4.4-30.5Q5.05-31.05 5.38-31.23 5.7-31.4 6.1-31.55L6.1-31.55Q6.3-31.6 6.5-31.6L6.5-31.6Q6.6-31.6 6.65-31.6L6.65-31.6Q7.1-31.85 7.55-31.9L7.55-31.9Q7.8-31.9 8.05-31.93 8.3-31.95 8.55-32L8.55-32Q9.4-32.3 10.28-32.35 11.15-32.4 12.05-32.4L12.05-32.4Q12.3-32.5 12.58-32.5 12.85-32.5 13.1-32.5L13.1-32.5Q13.95-32.5 14.6-32.38 15.25-32.25 15.8-32L15.8-32Q16.15-32 16.35-32.05L16.35-32.05Q16.45-32.05 16.57-32.08 16.7-32.1 16.8-32.1L16.8-32.1Q17.25-32.1 17.45-31.95L17.45-31.95Q17.55-31.9 17.75-31.9L17.75-31.9 17.85-31.9Q18-31.8 18.2-31.6L18.2-31.6Q18.3-31.35 18.5-31.08 18.7-30.8 19-30.55L19-30.55Q19.25-30.3 19.38-30.08 19.5-29.85 19.6-29.6L19.6-29.6Q19.75-29.35 19.85-29.3L19.85-29.3 20-28.9 20-28.55Q20.1-28.3 20.18-28.05 20.25-27.8 20.15-27.55L20.15-27.55 20.25-27.05Q20.4-26.3 20.55-25.9L20.55-25.9Q20.55-25.6 20.65-25.1L20.65-25.1Q20.6-24.65 20.65-24.6L20.65-24.6Q20.6-24.1 20.58-23.95 20.55-23.8 20.55-23.7L20.55-23.7Q20.35-23.35 20.45-23.15L20.45-23.15Q21-22.3 20.95-21.3L20.95-21.3Q20.9-20.9 20.85-20.5 20.8-20.1 20.7-19.7L20.7-19.7 20.55-19.15Q20.5-19 20.48-18.88 20.45-18.75 20.5-18.55L20.5-18.55Q20.25-17.95 19.78-17.68 19.3-17.4 18.65-17.3L18.65-17.3Q18.1-17.05 17.9-17 17.7-16.95 17.55-16.95L17.55-16.95Q17.25-16.9 16.82-16.85 16.4-16.8 16-16.65L16-16.65Q15.9-16.6 15.65-16.6L15.65-16.6Q15.55-16.6 15.15-16.7L15.15-16.7Q14.65-16.85 14.55-16.85L14.55-16.85 14.1-16.85 13.9-16.85 13.2-16.85Q12.2-17.35 11.85-17.63 11.5-17.9 11.25-18.2L11.25-18.2Q10.9-18.4 10.9-18.55L10.9-18.55Q10.7-18.95 10.55-19.05L10.55-19.05Q10.5-19.2 10.48-19.33 10.45-19.45 10.45-19.65L10.45-19.65Q10.35-19.95 10.2-20.25L10.2-20.25Q10.1-20.7 10.05-20.98 10-21.25 9.95-21.4L9.95-21.4Q10-21.55 10.03-21.68 10.05-21.8 10.05-21.95L10.05-21.95Q9.95-22.15 10.2-22.3ZM11.65-5.2L11.65-5.2 11.25-5.3Q10.9-5.3 10.75-5.73 10.6-6.15 10.6-6.45L10.6-6.45Q10.9-6.9 11.55-6.9L11.55-6.9Q12.15-6.9 12.5-6.65L12.5-6.65Q12.65-6.05 12.35-5.8L12.35-5.8Q12.15-5.6 11.98-5.48 11.8-5.35 11.65-5.2ZM21.2-13.9L21.2-13.9Q21.65-13.25 21.8-12.35L21.8-12.35Q21.9-11.55 21.4-11.25L21.4-11.25Q20.85-11.15 20.85-11.2L20.85-11.2Q20.55-11.05 20.3-11.05L20.3-11.05Q20-11.05 19.6-11.2L19.6-11.2Q19.4-11.25 19.4-11.7L19.4-11.7Q19.4-12.1 19.15-12.2L19.15-12.2 19.4-13.2Q19.75-13.7 20.2-13.8 20.65-13.9 21.2-13.9ZM20.55-10.15L20.55-10.15 20.95-10.2Q21.2-9.95 21.13-9.55 21.05-9.15 20.7-9.05L20.7-9.05Q20.25-9.15 20.25-9.3L20.25-9.3Q20.05-9.7 20.18-9.95 20.3-10.2 20.55-10.15ZM1.05-31.55L1.35-31.6Q1.65-31.6 1.85-31.53 2.05-31.45 2.1-31.15L2.1-31.15Q2.1-30.6 1.85-30.2L1.85-30.2Q1.6-29.95 1.48-29.78 1.35-29.6 1.3-29.5L1.3-29.5Q1-29.1 0.5-29.1L0.5-29.1Q0.4-29.1 0.1-29.2L0.1-29.2Q-0.25-29.4-0.2-29.85L-0.2-29.85Q0.05-30.25 0.1-30.43 0.15-30.6 0.2-30.75L0.2-30.75Q0.45-31 0.55-31.13 0.65-31.25 0.75-31.4L0.75-31.4 1.05-31.55ZM22.05-24.5L22.05-24.5Q22.15-24.5 22.25-24.55 22.35-24.6 22.45-24.65L22.45-24.65 22.8-24.8Q23.45-24.65 23.45-24.1L23.45-24.1Q23.3-23.4 22.95-23.4L22.95-23.4Q22.75-23.3 22.63-23.2 22.5-23.1 22.4-23.1L22.4-23.1Q22.3-23.1 22.05-23.4L22.05-23.4Q21.95-23.65 21.95-23.85 21.95-24.05 21.95-24.15L21.95-24.15Q22.05-24.35 22.05-24.5ZM25.3-10.65L25.3-10.65Q25.4-10.25 25.25-10.05L25.25-10.05Q25.05-9.65 24.75-9.55L24.75-9.55Q24.5-9.45 24.12-9.78 23.75-10.1 23.85-10.5L23.85-10.5Q23.95-10.7 24.2-10.8 24.45-10.9 24.7-10.9L24.7-10.9Q25.15-10.9 25.3-10.65ZM32.35-22.3L32.35-22.3Q32.2-22.45 32.4-22.6L32.4-22.6Q32.55-22.85 32.55-23L32.55-23Q32.75-23.1 32.95-23.28 33.15-23.45 33.4-23.45L33.4-23.45Q33.5-23.45 33.55-23.4L33.55-23.4Q33.65-23.5 33.75-23.5L33.75-23.5 33.9-23.5 34.05-23.5Q34.3-23.5 34.35-23.65L34.35-23.65Q34.65-23.55 34.75-23.55L34.75-23.55Q34.9-23.55 35.1-23.65L35.1-23.65Q35.2-23.7 35.4-23.7L35.4-23.7Q35.55-23.7 35.85-23.6L35.85-23.6Q36.2-23 36.25-22.8L36.25-22.8 36.4-22.25Q36.5-21.4 36.75-21.05L36.75-21.05Q36.85-20.9 36.92-20.7 37-20.5 37.05-20.35L37.05-20.35 37.55-20.2 37.95-20Q38.2-20.05 38.35-20.1 38.5-20.15 38.6-20.2L38.6-20.2 39-20.35Q39.1-20.4 39.3-20.6L39.3-20.6Q39.5-20.8 39.6-20.85L39.6-20.85Q39.6-21.5 39.85-21.85L39.85-21.85 39.85-22.95Q39.6-23.35 39.4-24.05 39.2-24.75 39.1-25.3L39.1-25.3Q38.95-25.6 38.85-25.65L38.85-25.65Q38.65-25.85 38.7-26L38.7-26Q38.35-26.05 38.35-26.45L38.35-26.45Q38.25-26.55 38.2-26.6 38.15-26.65 38.05-26.7L38.05-26.7Q37.85-26.75 37.8-26.95L37.8-26.95Q37.65-27 37.47-27.03 37.3-27.05 37.15-27.15L37.15-27.15Q36.75-27.35 36.5-27.35L36.5-27.35Q36.15-27.6 36-27.6L36-27.6 35.9-27.6Q35.7-27.6 35.65-27.65L35.65-27.65Q35.1-27.65 34.85-27.7L34.85-27.7Q34.6-27.7 34.42-27.73 34.25-27.75 34.05-27.8L34.05-27.8Q33.9-27.75 33.65-27.75L33.65-27.75 33.45-27.75Q33.2-27.75 32.8-27.65L32.8-27.65Q32.5-27.5 32.25-27.45L32.25-27.45Q31.25-27.1 30.25-26.95L30.25-26.95Q29.7-26.75 29.35-26.15L29.35-26.15 28.65-25Q28.4-24.75 28.4-24.45L28.4-24.45Q28.3-23.95 28.2-23.85L28.2-23.85 27.85-22.85Q27.7-22.5 27.75-22.2L27.75-22.2Q27.85-21.95 27.9-21.63 27.95-21.3 28.05-20.9L28.05-20.9Q28.1-20.7 28.1-20.53 28.1-20.35 28.15-20.2L28.15-20.2Q28.25-19.8 28.25-19.7L28.25-19.7 28.4-19Q28.55-18.45 28.65-18.25 28.75-18.05 28.85-17.95L28.85-17.95Q28.95-17.85 29.05-17.73 29.15-17.6 29.25-17.45L29.25-17.45Q29.55-17 30.05-16.95L30.05-16.95Q30.6-16.9 30.95-16.65L30.95-16.65Q31.5-16.55 31.72-16.4 31.95-16.25 32.2-16L32.2-16Q32.45-15.75 32.65-15.58 32.85-15.4 33.2-15.3L33.2-15.3Q33.3-15.05 33.6-15.05L33.6-15.05Q33.9-14.95 33.95-14.85L33.95-14.85Q34.35-14.8 34.75-14.68 35.15-14.55 35.4-14.4L35.4-14.4Q35.9-14.4 36.35-14.25L36.35-14.25Q36.4-14.25 36.42-14.28 36.45-14.3 36.5-14.3L36.5-14.3Q36.55-14.3 36.75-14.2L36.75-14.2Q36.9-14.05 37.1-14.05L37.1-14.05Q37.3-13.85 37.55-13.8 37.8-13.75 38.1-13.75L38.1-13.75Q38.25-13.45 38.75-13.45L38.75-13.45Q39-13.25 39.07-13.13 39.15-13 39.25-12.75L39.25-12.75Q39.5-12.25 39.72-11.7 39.95-11.15 40.2-10.6L40.2-10.6Q40.45-9.75 40.6-9.15 40.75-8.55 40.8-7.95L40.8-7.95 40.8-6.6Q40.8-5.3 40.35-4.3L40.35-4.3Q40.2-4.05 40.07-3.8 39.95-3.55 39.85-3.3L39.85-3.3Q39.65-3.05 39.52-2.9 39.4-2.75 39.3-2.55L39.3-2.55Q39.15-2.3 38.5-1.8L38.5-1.8Q38.3-1.6 37.9-1.4L37.9-1.4Q37.45-0.95 36.75-0.8L36.75-0.8Q36.1-0.65 35.55-0.35L35.55-0.35Q35.05-0.25 34.9-0.15L34.9-0.15 34.45-0.15Q34.1-0.1 33.87-0.08 33.65-0.05 33.4 0.1L33.4 0.1Q33.05 0.25 32.75 0.25L32.75 0.25Q32.5 0.25 32.4 0.2L32.4 0.2Q32.35 0.2 32.3 0.18 32.25 0.15 32.2 0.15L32.2 0.15Q32.05 0.15 31.9 0.3L31.9 0.3 31.65 0.3Q31.15 0.3 31 0.45L31 0.45 29.6 0.4Q29.55 0.25 29.3 0.25L29.3 0.25Q28.75 0.15 28.55 0.08 28.35 0 28.25-0.1L28.25-0.1Q28-0.15 27.7-0.35L27.7-0.35Q27.4-0.4 27.25-0.7L27.25-0.7Q26.85-0.7 26.85-0.9L26.85-0.9Q26.4-1.2 26.25-1.2L26.25-1.2 26.15-1.2Q25.85-1.45 25.72-1.6 25.6-1.75 25.5-2L25.5-2Q25.05-2.25 24.95-2.65L24.95-2.65Q24.8-2.9 24.6-3L24.6-3Q24.5-3.25 24.4-3.45 24.3-3.65 24.2-3.85L24.2-3.85Q23.95-4.25 24.1-4.75L24.1-4.75Q24.05-5.4 23.9-5.65L23.9-5.65Q23.8-6.15 23.82-6.35 23.85-6.55 23.9-6.65L23.9-6.65Q24.1-6.95 24.15-7.25L24.15-7.25Q24.3-7.45 24.37-7.55 24.45-7.65 24.55-7.75L24.55-7.75Q24.8-7.85 24.9-8.1L24.9-8.1Q25.45-8.35 25.8-8.55L25.8-8.55Q26.15-8.75 26.5-8.8L26.5-8.8Q26.75-8.8 27.05-8.95L27.05-8.95Q27.3-8.95 27.4-8.85L27.4-8.85Q27.6-8.9 28-8.9L28-8.9Q28.65-8.9 29.1-8.75L29.1-8.75Q29.35-8.9 29.65-8.9L29.65-8.9Q29.9-8.9 30.05-8.7L30.05-8.7Q30-8.35 30.2-8.05L30.2-8.05Q30.5-7.25 30.5-6.45L30.5-6.45Q30.65-6.2 30.62-5.73 30.6-5.25 30.35-4.9L30.35-4.9Q30.55-4.35 30.7-4.3L30.7-4.3 31-4.1Q31.25-3.85 31.45-3.85L31.45-3.85Q31.9-3.75 32.15-3.68 32.4-3.6 32.6-3.6L32.6-3.6Q32.85-3.6 32.95-3.65L32.95-3.65Q33.2-3.75 33.4-3.78 33.6-3.8 33.85-3.85L33.85-3.85Q34-4 34.15-4.1 34.3-4.2 34.5-4.3L34.5-4.3Q34.9-4.45 35.05-4.8L35.05-4.8Q35.35-5.2 35.5-5.25L35.5-5.25Q35.4-5.7 35.7-6L35.7-6Q35.95-6.25 36-6.65 36.05-7.05 35.95-7.45L35.95-7.45Q35.85-7.95 35.7-8.15L35.7-8.15Q35.7-8.7 35.35-9.1L35.35-9.1Q35.05-9.45 34.9-9.95L34.9-9.95Q34.7-10.05 34.6-10.15 34.5-10.25 34.45-10.3L34.45-10.3Q34.35-10.4 34.22-10.48 34.1-10.55 33.9-10.6L33.9-10.6Q33.55-10.75 33.4-10.83 33.25-10.9 33.15-10.95L33.15-10.95Q32.95-11.1 32.7-11.1L32.7-11.1Q32.6-11.2 32.45-11.28 32.3-11.35 32.1-11.4L32.1-11.4Q31.65-11.5 31.5-11.6L31.5-11.6Q30.95-11.6 30.5-11.9L30.5-11.9Q29.9-12 29.32-12.1 28.75-12.2 28.35-12.6L28.35-12.6Q28.1-12.85 27.95-12.85L27.95-12.85Q27.5-13.1 27.35-13.3L27.35-13.3 26.95-13.75Q26.3-13.8 25.95-14.25L25.95-14.25Q25.4-14.45 25.3-14.6L25.3-14.6Q25.2-14.65 25.12-14.7 25.05-14.75 24.95-14.8L24.95-14.8Q24.5-15.05 24.4-15.6L24.4-15.6 24.25-16.2Q24-16.5 24.1-16.7L24.1-16.7 23.7-18Q23.65-18.25 23.57-18.5 23.5-18.75 23.4-19L23.4-19Q23.3-19.3 23.25-19.53 23.2-19.75 23.15-19.9L23.15-19.9Q23.15-20 23.1-20.13 23.05-20.25 23-20.35L23-20.35Q22.95-21 22.65-21.5L22.65-21.5Q22.6-22.05 22.6-22.28 22.6-22.5 22.65-22.65L22.65-22.65Q22.75-23 22.6-23.3L22.6-23.3Q22.7-23.55 22.75-23.9 22.8-24.25 22.65-24.5L22.65-24.5 22.8-25.25Q22.8-25.65 23-25.85L23-25.85Q22.95-26.15 23.1-26.3L23.1-26.3Q23.15-26.4 23.2-26.5 23.25-26.6 23.3-26.75L23.3-26.75Q23.55-27 23.72-27.38 23.9-27.75 24-28.1L24-28.1Q24.25-28.25 24.4-28.6L24.4-28.6Q24.5-28.7 24.6-28.85 24.7-29 24.8-29.1L24.8-29.1Q25.55-30 26.55-30.5L26.55-30.5Q27.2-31.05 27.52-31.23 27.85-31.4 28.25-31.55L28.25-31.55Q28.45-31.6 28.65-31.6L28.65-31.6Q28.75-31.6 28.8-31.6L28.8-31.6Q29.25-31.85 29.7-31.9L29.7-31.9Q29.95-31.9 30.2-31.93 30.45-31.95 30.7-32L30.7-32Q31.55-32.3 32.42-32.35 33.3-32.4 34.2-32.4L34.2-32.4Q34.45-32.5 34.72-32.5 35-32.5 35.25-32.5L35.25-32.5Q36.1-32.5 36.75-32.38 37.4-32.25 37.95-32L37.95-32Q38.3-32 38.5-32.05L38.5-32.05Q38.6-32.05 38.72-32.08 38.85-32.1 38.95-32.1L38.95-32.1Q39.4-32.1 39.6-31.95L39.6-31.95Q39.7-31.9 39.9-31.9L39.9-31.9 40-31.9Q40.15-31.8 40.35-31.6L40.35-31.6Q40.45-31.35 40.65-31.08 40.85-30.8 41.15-30.55L41.15-30.55Q41.4-30.3 41.52-30.08 41.65-29.85 41.75-29.6L41.75-29.6Q41.9-29.35 42-29.3L42-29.3 42.15-28.9 42.15-28.55Q42.25-28.3 42.32-28.05 42.4-27.8 42.3-27.55L42.3-27.55 42.4-27.05Q42.55-26.3 42.7-25.9L42.7-25.9Q42.7-25.6 42.8-25.1L42.8-25.1Q42.75-24.65 42.8-24.6L42.8-24.6Q42.75-24.1 42.72-23.95 42.7-23.8 42.7-23.7L42.7-23.7Q42.5-23.35 42.6-23.15L42.6-23.15Q43.15-22.3 43.1-21.3L43.1-21.3Q43.05-20.9 43-20.5 42.95-20.1 42.85-19.7L42.85-19.7 42.7-19.15Q42.65-19 42.62-18.88 42.6-18.75 42.65-18.55L42.65-18.55Q42.4-17.95 41.92-17.68 41.45-17.4 40.8-17.3L40.8-17.3Q40.25-17.05 40.05-17 39.85-16.95 39.7-16.95L39.7-16.95Q39.4-16.9 38.97-16.85 38.55-16.8 38.15-16.65L38.15-16.65Q38.05-16.6 37.8-16.6L37.8-16.6Q37.7-16.6 37.3-16.7L37.3-16.7Q36.8-16.85 36.7-16.85L36.7-16.85 36.25-16.85 36.05-16.85 35.35-16.85Q34.35-17.35 34-17.63 33.65-17.9 33.4-18.2L33.4-18.2Q33.05-18.4 33.05-18.55L33.05-18.55Q32.85-18.95 32.7-19.05L32.7-19.05Q32.65-19.2 32.62-19.33 32.6-19.45 32.6-19.65L32.6-19.65Q32.5-19.95 32.35-20.25L32.35-20.25Q32.25-20.7 32.2-20.98 32.15-21.25 32.1-21.4L32.1-21.4Q32.15-21.55 32.17-21.68 32.2-21.8 32.2-21.95L32.2-21.95Q32.1-22.15 32.35-22.3ZM33.8-5.2L33.8-5.2 33.4-5.3Q33.05-5.3 32.9-5.73 32.75-6.15 32.75-6.45L32.75-6.45Q33.05-6.9 33.7-6.9L33.7-6.9Q34.3-6.9 34.65-6.65L34.65-6.65Q34.8-6.05 34.5-5.8L34.5-5.8Q34.3-5.6 34.12-5.48 33.95-5.35 33.8-5.2ZM43.35-13.9L43.35-13.9Q43.8-13.25 43.95-12.35L43.95-12.35Q44.05-11.55 43.55-11.25L43.55-11.25Q43-11.15 43-11.2L43-11.2Q42.7-11.05 42.45-11.05L42.45-11.05Q42.15-11.05 41.75-11.2L41.75-11.2Q41.55-11.25 41.55-11.7L41.55-11.7Q41.55-12.1 41.3-12.2L41.3-12.2 41.55-13.2Q41.9-13.7 42.35-13.8 42.8-13.9 43.35-13.9ZM42.7-10.15L42.7-10.15 43.1-10.2Q43.35-9.95 43.27-9.55 43.2-9.15 42.85-9.05L42.85-9.05Q42.4-9.15 42.4-9.3L42.4-9.3Q42.2-9.7 42.32-9.95 42.45-10.2 42.7-10.15ZM23.2-31.55L23.5-31.6Q23.8-31.6 24-31.53 24.2-31.45 24.25-31.15L24.25-31.15Q24.25-30.6 24-30.2L24-30.2Q23.75-29.95 23.62-29.78 23.5-29.6 23.45-29.5L23.45-29.5Q23.15-29.1 22.65-29.1L22.65-29.1Q22.55-29.1 22.25-29.2L22.25-29.2Q21.9-29.4 21.95-29.85L21.95-29.85Q22.2-30.25 22.25-30.43 22.3-30.6 22.35-30.75L22.35-30.75Q22.6-31 22.7-31.13 22.8-31.25 22.9-31.4L22.9-31.4 23.2-31.55ZM44.2-24.5L44.2-24.5Q44.3-24.5 44.4-24.55 44.5-24.6 44.6-24.65L44.6-24.65 44.95-24.8Q45.6-24.65 45.6-24.1L45.6-24.1Q45.45-23.4 45.1-23.4L45.1-23.4Q44.9-23.3 44.77-23.2 44.65-23.1 44.55-23.1L44.55-23.1Q44.45-23.1 44.2-23.4L44.2-23.4Q44.1-23.65 44.1-23.85 44.1-24.05 44.1-24.15L44.1-24.15Q44.2-24.35 44.2-24.5Z" fill="#ff851b" data-fill-palette-color="primary"></path></g></svg></g></svg></g></svg></g></svg></g><g transform="matrix(1,0,0,1,37.15199999999999,0)"><svg viewBox="0 0 118.656 121.57534834063829" height="121.57534834063829" width="118.656"><g><svg xmlns="http://www.w3.org/2000/svg" xmlns:xlink="http://www.w3.org/1999/xlink" version="1.1" x="0" y="0" viewBox="6.284529946162075 5.3371533314689845 87.54508159514583 89.69899364919983" enable-background="new 0 0 100 100" xml:space="preserve" height="121.57534834063829" width="118.656" class="icon-icon-0" data-fill-palette-color="accent" id="icon-0"><path d="M35.1 42.4C35.6 46.6 35.2 50.3 36.4 53.9 37.9 58 39.5 62.1 41 66.2 41.6 67.7 42.6 68.4 44.2 68.9 49.7 70.3 55.3 71.9 60 75.3 62.4 77 64.7 78.8 66.9 80.7 69.1 82.5 70.3 85.1 71.8 87.4 70.8 89.2 70 90.9 69 92.6 67.6 94.9 66.3 95.3 63.6 94.9 61.5 94.6 59.3 94.4 57.3 93.6 54.3 92.4 51.7 90.7 49.5 88.3 48.3 86.9 46.8 85.6 45.3 84.6 43.5 83.4 42.3 81.9 41.2 80.2 40.2 78.6 39.4 76.9 38.4 75.3 38.1 74.8 37.5 74.1 36.9 74 33.1 73.3 29.4 72.3 25.7 70.8 25.6 71.4 25.5 71.9 25.6 72.3 25.9 74.7 26.2 77.1 26.5 79.6 26.9 82.8 28.5 85.3 30.8 87.3 33.3 89.5 33.7 90 31.4 93.5 30.2 95.3 29.2 95.5 27.5 94.1 24.1 91.5 21.8 88.3 21.4 83.8 21 79.2 20.1 74.7 19.5 70.1 19.3 68.7 18.7 67.9 17.4 67.3 15.2 66.4 13.1 65.3 11.5 63.5 9.1 60.9 7.2 58 6.4 54.5 6.3 54 6.2 53.3 6.4 52.9 7.9 49.5 9.3 46.1 12.8 44.1 15 42.8 16 42.8 17.7 44.7 19.2 46.4 20.5 48.2 21.8 50 22.1 50.4 22.4 51 22.5 51.5 23 54.4 23.6 57.3 23.9 60.2 24.1 61.9 24.5 63 26.3 63.6 28.5 64.3 30.6 65.2 32.8 66 33 66.1 33.3 66 33.8 66.1 33.7 65.4 33.6 64.9 33.4 64.4 32.9 63 32.3 61.5 31.8 60.1 31.4 59 31 57.8 30.9 56.7 30.5 53.1 30.2 49.5 29.9 45.9 29.8 44.2 29.9 42.6 30 40.9 30.1 39.7 29.7 39 28.7 38.3 26.4 36.6 24.3 34.7 22.1 32.9 21.7 32.5 21.2 32.2 21 31.7 19.4 28.7 17.7 25.8 16.2 22.7 15.7 21.6 15.5 20.3 15.6 19.1 15.9 15.1 18 12.2 21.4 10.2 22.8 9.4 24.2 8.6 25.5 7.8S28.2 6.9 29.5 7.7C31.3 8.8 32.9 10.1 34 11.9 36.1 15.3 37.2 19 37 22.8 36.9 25.5 36 28.1 35.5 30.8 35.4 31.3 35.2 31.9 35.1 32.4 34.9 33.7 35.3 34.6 36.4 35.4 39.2 37.4 42.3 38.6 45.4 39.8 50.9 41.9 56.5 44.1 62 46.2 62.6 46.4 63.3 46.6 64 46.8 64.2 46 64.5 45.4 64.6 44.8 65 42.3 65.3 39.8 65.6 37.3 65.7 36.4 65.7 35.6 64.6 35.3 60.6 33.9 57.8 30.8 54.6 28.2 51.7 25.8 49.8 22.7 48.6 19.3S48.1 12.6 50.1 9.7C51 8.4 52.3 7.4 53.5 6.4 55.5 4.9 57.5 5.1 59.7 6.3 63.6 8.4 65.4 11.9 66.9 15.7 67.6 17.4 68 19.1 68.6 20.9 69.7 24.3 69.5 27.8 69.8 31.3 69.8 32 69.9 32.7 69.9 33.4 71.8 34.2 73.7 34 75.5 34 79.1 34 82.6 33.9 86.2 34 87.6 34 89 34.4 90.3 34.8S92.6 36.1 92.9 37.6C92.4 37.6 92 37.7 91.6 37.6 89 36.3 86.2 35.9 83.3 36 79.7 36.1 76 35.9 72.5 36.7 71.6 36.9 70.6 36.7 69.4 36.7 69 40.2 67.9 43.5 68.2 47 68.3 48.4 69.2 48.6 70.2 49.1 73.4 50.5 76.8 51.8 79.9 53.6 84.8 56.4 88.8 60.3 92.8 64.3 93.9 65.4 94.2 66.7 93.3 68.1 92.9 68.7 92.7 69.5 92.4 70.2 91.6 72.7 89.9 74.2 87.5 75 85.9 75.6 84.2 76.1 82.6 76.7 80.8 77.4 79.1 77.1 77.3 76.4 73.5 74.9 70.8 72.1 68.8 68.7 66.3 64.6 64.7 60.1 64.4 55.3 64.3 53.7 63.7 53 62.2 52.6 54.7 50.6 47.5 47.8 40.4 44.7 38.8 43.6 37.2 43.1 35.1 42.4M65.7 31.3C65.7 29.6 65.9 28.1 65.8 26.6 65.6 22.4 64.2 18.6 62.4 14.8 61.2 12.3 59.4 10.5 57.1 9.1 54.6 7.5 53.2 8.1 52.2 10.9 50.8 15.1 52 18.8 54.4 22.1 57.2 25.8 61 28.5 64.8 31.1 65 31.2 65.1 31.2 65.7 31.3M69.2 54.9C69.2 55.4 69.2 55.7 69.3 56 70.2 58.3 71 60.7 72.2 62.9 73.6 65.6 75.6 67.9 78 69.7 80.1 71.3 82.4 72 85.1 71.1 86.2 70.7 87.3 70.6 88.3 70.3 90.6 69.7 91.2 68.2 89.7 66.3 88.9 65.3 88 64.2 86.9 63.5 83 60.8 79 58.2 74.6 56.4 73 55.6 71.3 54.8 69.2 54.9M31 31C32.4 29.6 32.8 28.2 32.6 26.7 32.5 25.8 32.4 24.9 32.4 24 32.4 22.1 31.9 20.3 30.9 18.6 30.3 17.5 29.6 16.4 28.9 15.4 27.9 13.9 26.5 12.8 24.9 12.2S22.2 12.1 21.6 13.6C20.7 15.8 20.7 18 21.9 20 23.5 22.6 25.1 25.2 27 27.6 28.1 29 29.6 29.9 31 31M65.4 88C63.1 84 52.3 77.4 48.2 77.4 50.6 81.4 61.5 88.1 65.4 88M12.8 48C12.6 48.5 12.3 48.8 12.2 49.2 11.6 50.9 12.2 52.5 12.9 54 14 56.3 15.6 58.1 17.8 59.5 18.6 56.3 15.9 50.1 12.8 48" fill="#fe6d98" data-fill-palette-color="accent"></path></svg></g></svg></g><g></g></svg></g></svg></g></svg></g><defs></defs></svg><rect width="320" height="360" fill="none" stroke="none" visibility="hidden"></rect></g></svg></g></svg>